<svg width="45" height="46" viewBox="0 0 45 46" fill="none" xmlns="http://www.w3.org/2000/svg">
	<rect y="0.257812" width="45" height="45" rx="5" fill="#CC5249" fill-opacity="0.1" />
	<path d="M36 22.2578C36 29.4436 30.1848 35.2578 23 35.2578C15.8143 35.2578 10 29.4426 10 22.2578C10 15.0721 15.8152 9.25781 23 9.25781C30.1857 9.25781 36 15.0731 36 22.2578ZM33.9688 22.2578C33.9688 16.1948 29.0622 11.2891 23 11.2891C16.937 11.2891 12.0312 16.1956 12.0312 22.2578C12.0312 28.3208 16.9378 33.2266 23 33.2266C29.063 33.2266 33.9688 28.32 33.9688 22.2578Z" fill="#CC5249" />
	<path d="M28.0104 22.2578C28.0104 22.8187 27.5557 23.2734 26.9948 23.2734H19.0052C18.4443 23.2734 17.9896 22.8187 17.9896 22.2578C17.9896 21.6969 18.4443 21.2422 19.0052 21.2422H26.9948C27.5557 21.2422 28.0104 21.6969 28.0104 22.2578Z" fill="#CC5249" />
</svg>