<svg width="45" height="46" viewBox="0 0 45 46" fill="none" xmlns="http://www.w3.org/2000/svg">
	<rect y="0.257812" width="45" height="45" rx="5" fill="#71B219" fill-opacity="0.1" />
	<path d="M35 22.2578C35 29.4436 29.1848 35.2578 22 35.2578C14.8143 35.2578 9 29.4426 9 22.2578C9 15.0721 14.8152 9.25781 22 9.25781C29.1857 9.25781 35 15.0731 35 22.2578ZM32.9688 22.2578C32.9688 16.1948 28.0622 11.2891 22 11.2891C15.937 11.2891 11.0312 16.1956 11.0312 22.2578C11.0312 28.3208 15.9378 33.2266 22 33.2266C28.063 33.2266 32.9688 28.32 32.9688 22.2578Z" fill="#539100" />
	<path d="M27.0104 22.2604C27.0104 22.8214 26.5557 23.2761 25.9948 23.2761H23.0156V26.2552C23.0156 26.8162 22.5609 27.2709 22 27.2709C21.4391 27.2709 20.9844 26.8162 20.9844 26.2552V23.2761H18.0052C17.4443 23.2761 16.9896 22.8214 16.9896 22.2604C16.9896 21.6995 17.4443 21.2448 18.0052 21.2448H20.9844V18.2656C20.9844 17.7047 21.4391 17.25 22 17.25C22.5609 17.25 23.0156 17.7047 23.0156 18.2656V21.2448H25.9948C26.5557 21.2448 27.0104 21.6995 27.0104 22.2604Z" fill="#539100" />
</svg>