<svg width="362" height="247" viewBox="0 0 362 247" fill="none" xmlns="http://www.w3.org/2000/svg">
	<path d="M362 167.152C362 178.085 359.842 188.375 355.527 198.022C351.543 207.348 345.9 215.708 338.597 223.105C331.293 230.18 322.664 235.807 312.705 239.987C303.078 244.168 292.621 246.258 281.335 246.258C267.06 246.258 254.446 243.204 243.492 237.094C232.868 230.984 223.739 223.105 216.105 213.458C208.802 203.489 203.158 192.235 199.175 179.693C195.523 166.831 193.697 153.807 193.697 140.623C193.697 126.152 195.689 111.842 199.673 97.6931C203.656 83.5441 209.299 70.3598 216.603 58.1402C224.237 45.9206 233.533 34.8264 244.487 24.8578C255.441 14.8892 267.724 6.68918 281.335 0.257812L325.152 22.9284C316.521 31.2892 309.052 40.9362 302.746 51.8695C296.77 62.8029 293.782 74.2186 293.782 86.1166V90.4579C303.409 92.0657 312.372 95.1206 320.671 99.6225C328.97 104.124 336.107 109.752 342.082 116.505C348.39 123.258 353.203 130.976 356.522 139.658C360.174 148.341 362 157.505 362 167.152ZM168.303 167.152C168.303 178.085 166.145 188.375 161.83 198.022C157.846 207.348 152.203 215.708 144.9 223.105C137.596 230.18 128.966 235.807 119.007 239.987C109.38 244.168 98.9235 246.258 87.6368 246.258C73.3627 246.258 60.7483 243.204 49.7936 237.094C39.171 230.984 30.0421 223.105 22.4072 213.458C15.1041 203.489 9.46079 192.235 5.47731 179.693C1.82577 166.831 0 153.807 0 140.623C0 126.152 1.99175 111.842 5.97524 97.6931C9.95874 83.5441 15.6021 70.3598 22.905 58.1402C30.5401 45.9206 39.835 34.8264 50.7895 24.8578C61.7441 14.8892 74.0266 6.68918 87.6368 0.257812L131.455 22.9284C122.824 31.2892 115.355 40.9362 109.048 51.8695C103.073 62.8029 100.085 74.2186 100.085 86.1166V90.4579C109.712 92.0657 118.675 95.1206 126.974 99.6225C135.273 104.124 142.41 109.752 148.385 116.505C154.693 123.258 159.506 130.976 162.825 139.658C166.477 148.341 168.303 157.505 168.303 167.152Z" fill="#EAF0FD" />
</svg>