<svg width="40" height="20" viewBox="0 0 40 20" fill="none" xmlns="http://www.w3.org/2000/svg">
	<path d="M33.5308 7.08812V10.9662C33.5308 12.2756 33.2199 13.2594 32.5981 13.9169C31.9762 14.5744 31.1121 14.9044 30.0064 14.9069C28.9057 14.9069 28.0434 14.5637 27.4203 13.8781C26.7972 13.1919 26.4863 12.1769 26.4876 10.8325V0.1875H21.1213V10.9294C21.1213 13.8575 21.8942 16.0481 23.4414 17.5012C24.9879 18.955 27.16 19.6819 29.9577 19.6837C31.2083 19.7012 32.4538 19.5231 33.6495 19.1569C34.6909 18.8319 35.6505 18.2881 36.4647 17.5619C37.2876 16.8 37.9094 15.8469 38.2753 14.7862C38.7155 13.5025 38.9271 12.1519 38.9009 10.795V7.08812H33.5308Z" fill="#DAEBD8" />
	<path d="M38.8484 0.1875H33.5015V5.54H38.8484V0.1875Z" fill="#C6DFC3" />
	<path d="M8.01367 0.335938V5.00969H8.01804V19.5403H13.33V5.00969H19.0965V0.335938H8.01367Z" fill="#DAEBD8" />
	<path d="M6.46345 0.335938H1.09717V5.70781H6.46345V0.335938Z" fill="#C6DFC3" />
</svg>